<svg width="140" height="48" viewBox="0 0 140 48" fill="none" xmlns="http://www.w3.org/2000/svg">
<rect width="140" height="47.9999" fill="url(#paint0_linear_732_1023)"/>
<path fill-rule="evenodd" clip-rule="evenodd" d="M12.0804 42.7476H16.1999C18.7574 42.7476 21.0832 42.3271 23.1772 41.486C25.2713 40.6449 27.0736 39.4434 28.5841 37.8814C30.1117 36.3195 31.2789 34.4485 32.0856 32.2686C32.9095 30.0716 33.3215 27.6342 33.3215 24.9566V23.077C33.3215 20.3822 32.9095 17.9448 32.0856 15.7649C31.2789 13.5851 30.1117 11.7141 28.5841 10.1521C27.0736 8.57301 25.2799 7.36291 23.203 6.52185C21.1432 5.68078 18.8604 5.26025 16.3543 5.26025H12.0804H7.96088H5V42.7476H8.11536H12.0804ZM12.0804 37.1863H16.1999C18.3797 37.1863 20.2078 36.7057 21.6839 35.7445C23.1601 34.7661 24.2758 33.3672 25.031 31.5477C25.7862 29.7111 26.1639 27.5141 26.1639 24.9566V23.0255C26.1639 21.0516 25.9493 19.3094 25.5202 17.7989C25.0911 16.2885 24.456 15.0183 23.6149 13.9884C22.791 12.9585 21.7697 12.1776 20.5511 11.6455C19.3324 11.1134 17.9335 10.8473 16.3543 10.8473H12.0804V37.1863ZM59.2485 47.9999V42.7476H35.7932V47.9999H59.2485ZM91.7354 42.7476V37.1863H75.0257V5.26025H67.9453V42.7476H72.8887H75.0257H91.7354ZM102.163 42.7476H99.4079L90.9115 5.26025H97.9403L103.44 32.3659L110.119 5.26025H112.075H114.161H116.092L122.756 32.3988L128.193 5.26025H135.247L126.751 42.7476H123.996H122.091H119.722L113.093 16.8101L106.437 42.7476H104.068H102.163Z" fill="#0E111A"/>
<defs>
<linearGradient id="paint0_linear_732_1023" x1="7.18003e-09" y1="21.1603" x2="140" y2="21.1603" gradientUnits="userSpaceOnUse">
<stop stop-color="#899ABA"/>
<stop offset="0.385249" stop-color="#8AD4C2"/>
<stop offset="0.979167" stop-color="#5B7EBF"/>
</linearGradient>
</defs>
</svg>
